<svg width="48" height="26" viewBox="0 0 48 26" fill="none" xmlns="http://www.w3.org/2000/svg">
<path d="M19.6333 7.64103L19.6333 14.9282L25 16.2385V22.3949L0.123079 14.7846L0.123079 7.64103L25 0.0307701V6.33077L19.6333 7.64103ZM15.3615 13.9949L15.3615 8.61026L4.35898 11.3026L15.3615 13.9949Z" fill="#52CBD9"/>
<path d="M46.921 7.65641C46.921 9.41778 46.5436 10.8728 45.7887 12.0215C45.0338 13.1703 43.9781 14.0291 42.6215 14.5979C41.265 15.1559 39.6896 15.4349 37.8954 15.4349H35.4338V23H30.0513V0.255386H37.2062C40.2913 0.255386 42.6817 0.868036 44.3774 2.09333C46.0732 3.31863 46.921 5.17299 46.921 7.65641ZM41.3744 7.67282C41.3744 5.28786 40.0068 4.09538 37.2718 4.09538H35.4338V11.5292H37.5508C38.7542 11.5292 39.6896 11.2229 40.3569 10.6103C41.0352 9.98667 41.3744 9.00752 41.3744 7.67282Z" fill="#52CBD9"/>
</svg>
