<svg width="194" height="27" viewBox="0 0 194 27" fill="none" xmlns="http://www.w3.org/2000/svg">
<path d="M19.6333 8.64103L19.6333 15.9282L25 17.2385V23.3949L0.123079 15.7846L0.123079 8.64103L25 1.03077V7.33077L19.6333 8.64103ZM15.3615 14.9949L15.3615 9.61026L4.35898 12.3026L15.3615 14.9949Z" fill="#52CBD9"/>
<path d="M46.921 8.65641C46.921 10.4178 46.5436 11.8728 45.7887 13.0215C45.0338 14.1703 43.9781 15.0291 42.6215 15.5979C41.265 16.1559 39.6896 16.4349 37.8954 16.4349H35.4338V24H30.0513V1.25539H37.2062C40.2913 1.25539 42.6817 1.86804 44.3774 3.09333C46.0732 4.31863 46.921 6.17299 46.921 8.65641ZM41.3744 8.67282C41.3744 6.28786 40.0068 5.09538 37.2718 5.09538H35.4338V12.5292H37.5508C38.7542 12.5292 39.6896 12.2229 40.3569 11.6103C41.0352 10.9867 41.3744 10.0075 41.3744 8.67282ZM60.8157 19.0933H54.1531L52.9552 24H47.3265L54.2844 1.25539H60.8157L67.7737 24H62.0137L60.8157 19.0933ZM55.0065 15.1877H59.9296L57.468 5.12821L55.0065 15.1877ZM79.1247 0.681026C80.7548 0.681026 82.1388 0.89983 83.2765 1.33744C84.4253 1.7641 85.4755 2.37128 86.4273 3.15898L83.7853 6.34257C83.1617 5.82838 82.4724 5.42359 81.7176 5.12821C80.9627 4.82188 80.1422 4.66872 79.256 4.66872C78.3042 4.66872 77.4345 4.94222 76.6468 5.48923C75.8591 6.0253 75.23 6.87863 74.7596 8.04923C74.2892 9.20889 74.054 10.7186 74.054 12.5785C74.054 15.3135 74.5463 17.3046 75.5309 18.5518C76.5265 19.788 77.801 20.4062 79.3545 20.4062C80.4923 20.4062 81.4386 20.1928 82.1935 19.7662C82.9483 19.3395 83.643 18.8745 84.2776 18.3713L86.7227 21.4892C85.8694 22.3316 84.8191 23.0537 83.5719 23.6554C82.3247 24.2571 80.8205 24.5579 79.0591 24.5579C77.0024 24.5579 75.1753 24.1039 73.5781 23.1959C71.9918 22.2769 70.7446 20.9313 69.8365 19.159C68.9394 17.3757 68.4909 15.1822 68.4909 12.5785C68.4909 10.0403 68.9559 7.88513 69.8858 6.11282C70.8266 4.34051 72.1012 2.99487 73.7094 2.0759C75.3176 1.14598 77.1227 0.681026 79.1247 0.681026ZM99.6656 24V14.4164H94.1517V24H88.7692V1.25539H94.1517V9.98564H99.6656V1.25539H105.048V24H99.6656ZM115.185 5.09538V10.56H123.062V14.3344H115.185V20.1436H124.686V24H109.802V1.25539H124.67L124.128 5.09538H115.185ZM138.187 0.681026C139.817 0.681026 141.201 0.89983 142.339 1.33744C143.488 1.7641 144.538 2.37128 145.49 3.15898L142.848 6.34257C142.224 5.82838 141.535 5.42359 140.78 5.12821C140.025 4.82188 139.205 4.66872 138.319 4.66872C137.367 4.66872 136.497 4.94222 135.709 5.48923C134.922 6.0253 134.293 6.87863 133.822 8.04923C133.352 9.20889 133.116 10.7186 133.116 12.5785C133.116 15.3135 133.609 17.3046 134.593 18.5518C135.589 19.788 136.863 20.4062 138.417 20.4062C139.555 20.4062 140.501 20.1928 141.256 19.7662C142.011 19.3395 142.706 18.8745 143.34 18.3713L145.785 21.4892C144.932 22.3316 143.882 23.0537 142.634 23.6554C141.387 24.2571 139.883 24.5579 138.122 24.5579C136.065 24.5579 134.238 24.1039 132.641 23.1959C131.054 22.2769 129.807 20.9313 128.899 19.159C128.002 17.3757 127.553 15.1822 127.553 12.5785C127.553 10.0403 128.018 7.88513 128.948 6.11282C129.889 4.34051 131.164 2.99487 132.772 2.0759C134.38 1.14598 136.185 0.681026 138.187 0.681026ZM165.079 12.6113C165.079 15.0181 164.734 17.1186 164.045 18.9128C163.356 20.6961 162.333 22.0855 160.976 23.081C159.631 24.0656 157.962 24.5579 155.971 24.5579C153.991 24.5579 152.323 24.0766 150.966 23.1138C149.609 22.1402 148.587 20.7617 147.897 18.9785C147.208 17.1952 146.863 15.0728 146.863 12.6113C146.863 10.2044 147.208 8.1094 147.897 6.32615C148.587 4.54291 149.609 3.15898 150.966 2.17436C152.323 1.1788 153.991 0.681026 155.971 0.681026C157.962 0.681026 159.631 1.16239 160.976 2.12513C162.333 3.08786 163.356 4.46085 164.045 6.2441C164.734 8.02735 165.079 10.1497 165.079 12.6113ZM159.565 12.6113C159.565 9.8106 159.286 7.77573 158.728 6.50667C158.17 5.23761 157.251 4.60308 155.971 4.60308C154.691 4.60308 153.772 5.24308 153.214 6.52308C152.656 7.79214 152.377 9.82154 152.377 12.6113C152.377 15.412 152.662 17.4468 153.231 18.7159C153.8 19.985 154.713 20.6195 155.971 20.6195C157.284 20.6195 158.208 19.9795 158.744 18.6995C159.291 17.4085 159.565 15.3791 159.565 12.6113Z" fill="#52CBD9"/>
<path d="M174.367 15.359V8.07179L169 6.76154V0.605128L193.877 8.21538V15.359L169 22.9692V16.6692L174.367 15.359ZM178.638 9.00513V14.3897L189.641 11.6974L178.638 9.00513Z" fill="#52CBD9"/>
</svg>
